<?xml version="1.0" standalone="no"?><!DOCTYPE svg PUBLIC "-//W3C//DTD SVG 1.1//EN" "http://www.w3.org/Graphics/SVG/1.1/DTD/svg11.dtd"><svg t="1737182414288" class="icon" viewBox="0 0 1026 1024" version="1.1" xmlns="http://www.w3.org/2000/svg" p-id="5239" xmlns:xlink="http://www.w3.org/1999/xlink" width="200.390625" height="200"><path d="M446.5152 472.0128zM416.9216 530.6368zM514.0992 397.1072zM430.2848 500.3776zM395.9808 642.816zM711.0656 327.7824a313.7536 313.7536 0 0 0-196.9152 69.3248 314.2656 314.2656 0 0 1 118.1696 245.76l-0.0512 0.7168a313.4976 313.4976 0 0 1-236.2368 0l-0.0512-0.7168a315.0848 315.0848 0 1 0 315.0848-315.0848zM399.616 597.504zM406.6304 562.7392z" fill="#4461EB" opacity=".8" p-id="5240"></path><path d="M581.7344 472.064zM630.272 608.1024c1.28 11.4176 1.9968 22.9888 1.9968 34.7136l-0.0512 0.7168a313.4976 313.4976 0 0 1-236.2368 0l-0.0512-0.7168a314.368 314.368 0 0 1 118.1696-245.76 313.4464 313.4464 0 0 0-196.864-69.2736 315.0848 315.0848 0 1 0 313.0368 280.32zM598.016 500.4288zM562.7392 445.5936zM628.6848 597.6576zM621.6704 562.8416zM611.3792 530.688z" fill="#4461EB" opacity=".6" p-id="5241"></path><path d="M632.1664 643.584zM570.1632 661.3504zM514.1504 36.4544a315.0848 315.0848 0 0 0-118.1184 607.0784l-0.0512-0.7168a314.368 314.368 0 0 1 118.1696-245.76 314.2656 314.2656 0 0 1 118.1696 245.76l-0.0512 0.7168A314.9824 314.9824 0 0 0 514.1504 36.4544zM457.4208 661.248z" fill="#4461EB" opacity=".4" p-id="5242"></path></svg>